<svg xmlns="http://www.w3.org/2000/svg" xmlns:xlink="http://www.w3.org/1999/xlink" width="312.811" height="147.946" viewBox="0 0 312.811 147.946"><defs><linearGradient id="a" y1="0.5" x2="1" y2="0.5" gradientUnits="objectBoundingBox"><stop offset="0" stop-color="#ffa234"/><stop offset="0.282" stop-color="#ff76ff"/><stop offset="0.512" stop-color="#9e01ff"/><stop offset="0.836" stop-color="#005bff"/><stop offset="1" stop-color="#00d9d2"/></linearGradient><linearGradient id="c" x1="-5.576" y1="0.501" x2="14.703" y2="0.501" xlink:href="#a"/><linearGradient id="d" x1="-5.283" y1="0.5" x2="2.966" y2="0.5" xlink:href="#a"/><linearGradient id="e" y1="0.5" x2="1" y2="0.5" gradientUnits="objectBoundingBox"><stop offset="0" stop-color="#ffa234"/><stop offset="0.282" stop-color="#ff76ff"/><stop offset="0.512" stop-color="#9e01ff"/><stop offset="0.737" stop-color="#005bff"/><stop offset="0.886" stop-color="#00d9d2"/></linearGradient></defs><g transform="translate(-88 -82)"><g transform="translate(76.074 65.776)"><g transform="translate(277.753 65.192)"><path d="M665.432,130.034l-27.815-.016L629.669,141.3h46.984l-6.187-8.871A6.091,6.091,0,0,0,665.432,130.034Z" transform="translate(-629.669 -130.018)" fill="#fff"/></g><g transform="translate(277.753 98.403)"><path d="M640.848,218.507l27.815.118,7.99-11.255-46.984-.173,6.155,8.893A6.093,6.093,0,0,0,640.848,218.507Z" transform="translate(-629.669 -207.197)" fill="#fff"/></g><g transform="translate(155.536 65.192)"><g transform="translate(0 0)"><path d="M387.127,133.234a7.968,7.968,0,0,0-1.018-.926,9.849,9.849,0,0,0-7.483-2.248,9.17,9.17,0,0,0-6.732,3.408,73.891,73.891,0,0,0-11.57,16.719c-2.815,6.39-1.415,9.98,5.5,5.667a116.8,116.8,0,0,1,13.636-16.009c4.593-4.683,11.136-1.766,14.869,2.553A89.66,89.66,0,0,0,387.127,133.234Z" transform="translate(-353.234 -130.018)" fill="#fff"/><path d="M349.339,207.767c-.035.1-.07.208-.1.313l.012-.006C349.278,207.973,349.308,207.869,349.339,207.767Z" transform="translate(-347.694 -174.31)" fill="#fff"/><path d="M349.339,207.767c-.035.1-.07.208-.1.313l.012-.006C349.278,207.973,349.308,207.869,349.339,207.767Z" transform="translate(-347.694 -174.31)" fill="#fff"/><path d="M431.888,174.3a82.942,82.942,0,0,0-10.448-22.207c-3.731-4.209-10.116-6.993-14.65-2.483A201.486,201.486,0,0,1,420.426,165.4c.074.1.143.191.212.285h0l.014.019.115.159q.092.128.177.252l.006.009a9.775,9.775,0,0,1,.986,1.739c2.093,5.028-1.147,4.835-4.283,4.394h0c-.162-.045-5.506-1.483-5.482-1.466-.333-.07-.665-.133-1-.19,5.672,1.487,10.189,3.326,13.986,6.635a31.9,31.9,0,0,1,3.835,4c2.117,2.619,3.211,3.754,3.735,2.794C433.464,182.683,432.951,178.354,431.888,174.3Z" transform="translate(-380.482 -139.865)" fill="#fff"/><path d="M359.3,191.28c-.019-.056-.038-.113-.054-.172C359.262,191.167,359.28,191.224,359.3,191.28Z" transform="translate(-353.397 -164.82)" fill="#fff"/><g transform="translate(0 20.076)"><path d="M432.034,205.287h0C432.039,205.289,432.039,205.289,432.034,205.287Z" transform="translate(-394.863 -192.973)" fill="#fff"/><path d="M387.109,184.592a10.814,10.814,0,0,0-1.3-2.178,32.1,32.1,0,0,0-27.392-.091c-7.1,4.511-8.53.853-5.634-5.651a78.581,78.581,0,0,0-6.419,16.632c-1.159,4.86-.76,7.954.185,8,.64.028,1.541-1.055,2.7-2.529a31.735,31.735,0,0,1,11.194-9.1,26.036,26.036,0,0,1,16.9-2.146c-.024-.017,5.32,1.421,5.482,1.466C385.962,189.427,389.2,189.62,387.109,184.592Z" transform="translate(-345.655 -176.671)" fill="#fff"/></g></g></g><g transform="translate(99.276 65.192)"><path d="M247.424,180.972c-2.152,1.928-4.619,6.01-7.422,6.01H215V151.31h.2l8.7-.023v29.685Z" transform="translate(-214.964 -142.135)" fill="#fff"/><line x2="0.045" transform="translate(0 9.171)" fill="#0016dd"/><g transform="translate(0.045)"><path d="M256.693,159.672a8.209,8.209,0,0,1-3.514,6.614,12.215,12.215,0,0,1-4.212,2.2.083.083,0,0,0-.068.022c-.5.134-.991.247-1.509.336.022-.045.045-.112.068-.157s.022-.068.045-.112a8.683,8.683,0,0,0,.676-3.408V148.932a8.21,8.21,0,0,0-3.514-6.614,12.178,12.178,0,0,0-5.587-2.511,13.8,13.8,0,0,0-2.771-.292l-12.547-.29v-.067l-8.741.022,4.6-4.341a21.057,21.057,0,0,1,4.573-4.014,5.836,5.836,0,0,1,3.041-.807l6.42.29,10.452.65a12.814,12.814,0,0,1,8.268,4.483,14.468,14.468,0,0,1,3.333,8.1Z" transform="translate(-215.018 -130.018)" fill="#fff"/></g></g><g transform="translate(222.843 65.192)"><path d="M534.272,180.5c-2.132,1.91-4.576,5.953-7.352,5.953H502.154V151.111h.2l8.618-.022V180.5Z" transform="translate(-502.116 -142.022)" fill="#fff"/><line x2="0.045" transform="translate(0 9.086)" fill="#0016dd"/><path d="M543.454,159.4a8.133,8.133,0,0,1-3.481,6.552,12.1,12.1,0,0,1-4.173,2.177.082.082,0,0,0-.067.022c-.491.133-.982.244-1.5.333.022-.044.045-.111.067-.155s.022-.067.044-.111a8.6,8.6,0,0,0,.67-3.376V148.755a8.133,8.133,0,0,0-3.481-6.552A12.064,12.064,0,0,0,526,139.715a13.679,13.679,0,0,0-2.745-.289l-12.43-.288v-.067l-8.659.022,4.553-4.3a20.849,20.849,0,0,1,4.53-3.976,5.777,5.777,0,0,1,3.013-.8l6.361.287,10.354.644a12.694,12.694,0,0,1,8.191,4.441,14.331,14.331,0,0,1,3.3,8.029Z" transform="translate(-502.125 -130.018)" fill="#fff"/></g><g transform="translate(277.753 65.192)"><path d="M652,155.252l-22.33-13.95,7.948-11.285Z" transform="translate(-629.669 -130.018)" fill="#fff"/></g><g transform="translate(302.457 84.544)"><path d="M687.078,174.99l22.279,14.032-7.99,11.255Z" transform="translate(-687.078 -174.99)" fill="#fff"/></g><g transform="translate(12.093 16.224)"><path d="M80.737,107.217a4.837,4.837,0,0,1-.862,2.773,3.831,3.831,0,0,1-.242.323A37.731,37.731,0,1,1,50.044,49.17V20.711a4.487,4.487,0,0,1,8.975,0V61.043A27.758,27.758,0,1,0,72.13,104.13a4.858,4.858,0,0,1,8.606,3.088Z" transform="translate(-12.315 -16.224)" fill="url(#a)"/><path d="M136.852,21.055V92.143H121.389a11.775,11.775,0,0,0,0-8.975h6.489V21.055a4.487,4.487,0,0,1,8.974,0Z" transform="translate(-74.452 -16.42)" fill="#0016dd"/><path d="M92.183,166.13a11.667,11.667,0,0,1-.889,4.487,11.979,11.979,0,0,1-1.714,2.908,11.8,11.8,0,1,1,2.6-7.4Z" transform="translate(-44.358 -94.894)" fill="url(#a)"/><g transform="translate(13.825 48.968)"><path d="M112.266,145.738c-.086-.039-.172-.079-.259-.117A2.552,2.552,0,0,0,112.266,145.738Z" transform="translate(-82.933 -138.907)" fill="url(#c)"/><path d="M116.469,134.36c.214.093.426.19.637.289A2.609,2.609,0,0,0,116.469,134.36Z" transform="translate(-85.475 -132.492)" fill="url(#d)"/><path d="M77.371,170.163a2.631,2.631,0,0,1-1.212,2.208.212.212,0,0,1-.063.036c-.17.081-.35.162-.52.243a21.412,21.412,0,0,1-8.894,1.838,22.234,22.234,0,1,1,8.8-42.638c.216.09.431.188.637.287a2.8,2.8,0,0,1,.673.584,2.6,2.6,0,0,1,0,3.285,2.573,2.573,0,0,1-2.97.808c-.09-.036-.17-.08-.26-.117a16.98,16.98,0,1,0-6.785,32.542,16.107,16.107,0,0,0,6.65-1.335c.17-.072.341-.144.5-.224.018-.009.027-.018.036-.018a2.833,2.833,0,0,1,.781-.117,2.613,2.613,0,0,1,2.621,2.621Z" transform="translate(-44.443 -130.018)" fill="url(#e)"/></g></g><g transform="translate(11.926 139.696)"><path d="M11.926,327.628V303.154h10.9a5.184,5.184,0,0,1,3.818,1.615,5.265,5.265,0,0,1,1.6,3.835v13.575a5.259,5.259,0,0,1-1.6,3.833,5.187,5.187,0,0,1-3.818,1.617Zm5.449-2.709h2.709a2.619,2.619,0,0,0,1.942-.816,2.658,2.658,0,0,0,.8-1.925V308.6a2.727,2.727,0,0,0-2.74-2.741H17.375Z" transform="translate(-11.926 -303.154)" fill="#fff"/><path d="M78.821,326.684H67.955v2.709a2.658,2.658,0,0,0,.8,1.925,2.582,2.582,0,0,0,1.91.816H73.4a2.408,2.408,0,0,0,2.709-2.741h2.709q-.622,5.449-5.418,5.45H67.955a5.488,5.488,0,0,1-5.45-5.45v-8.158a5.179,5.179,0,0,1,1.615-3.818,5.268,5.268,0,0,1,3.835-1.6H73.4a5.462,5.462,0,0,1,5.418,5.417Zm-10.867-2.708H73.4v-2.741a2.607,2.607,0,0,0-.8-1.91,2.643,2.643,0,0,0-1.942-.8,2.728,2.728,0,0,0-2.708,2.709Z" transform="translate(-40.74 -310.368)" fill="#fff"/><path d="M126.693,321.235h-2.709q-.325-2.708-2.741-2.709a2.729,2.729,0,0,0-2.709,2.709v8.158a2.658,2.658,0,0,0,.8,1.925,2.582,2.582,0,0,0,1.91.816q2.415,0,2.741-2.741h2.709q-.325,5.449-5.45,5.45h-2.709a5.488,5.488,0,0,1-5.449-5.45v-8.158a5.179,5.179,0,0,1,1.615-3.818,5.266,5.266,0,0,1,3.835-1.6h2.709Q126.4,315.818,126.693,321.235Z" transform="translate(-69.554 -310.368)" fill="#fff"/><path d="M173.612,326.684H162.745v2.709a2.658,2.658,0,0,0,.8,1.925,2.582,2.582,0,0,0,1.91.816h2.741a2.409,2.409,0,0,0,2.709-2.741h2.708q-.621,5.449-5.417,5.45h-5.45a5.488,5.488,0,0,1-5.449-5.45v-8.158a5.179,5.179,0,0,1,1.615-3.818,5.266,5.266,0,0,1,3.835-1.6h5.45a5.462,5.462,0,0,1,5.417,5.417Zm-10.867-2.708h5.45v-2.741a2.607,2.607,0,0,0-.8-1.91,2.644,2.644,0,0,0-1.942-.8,2.729,2.729,0,0,0-2.709,2.709Z" transform="translate(-94.74 -310.368)" fill="#fff"/><path d="M207.876,334.843V315.818h5.449v2.708a3.309,3.309,0,0,1,.848-2.039,2.549,2.549,0,0,1,1.861-.669h2.741a5.462,5.462,0,0,1,5.417,5.417v13.608h-5.417V321.235a2.605,2.605,0,0,0-.8-1.91,2.643,2.643,0,0,0-1.942-.8,2.729,2.729,0,0,0-2.709,2.709v13.608Z" transform="translate(-123.555 -310.368)" fill="#fff"/><path d="M261.2,303.154h5.418v5.45h2.74v2.708h-2.74v10.867a2.449,2.449,0,0,0,.882,2.04,2.672,2.672,0,0,0,1.6.7h.261v2.709h-2.74a5.463,5.463,0,0,1-5.418-5.45V311.312h-2.74V308.6h2.74Z" transform="translate(-152.369 -303.154)" fill="#fff"/><path d="M301.821,334.843h-5.449V315.818h5.449v5.417a6.713,6.713,0,0,1,1.68-4.064,5.1,5.1,0,0,1,3.769-1.353h2.708v5.417H304.53a2.607,2.607,0,0,0-1.91.8,2.644,2.644,0,0,0-.8,1.942Z" transform="translate(-173.969 -310.368)" fill="#fff"/><path d="M345.187,323.976v-2.741a2.607,2.607,0,0,0-.8-1.91,2.643,2.643,0,0,0-1.942-.8h-2.708q-2.416,0-2.709,2.709h-2.741q.653-5.417,5.45-5.417h5.449a5.462,5.462,0,0,1,5.417,5.417v13.608h-5.417v-2.709q-.325,2.708-2.741,2.709h-2.708a5.488,5.488,0,0,1-5.45-5.45,5.179,5.179,0,0,1,1.615-3.818,5.267,5.267,0,0,1,3.835-1.6Zm0,2.708h-2.741a2.728,2.728,0,0,0-2.708,2.709,2.658,2.658,0,0,0,.8,1.925,2.582,2.582,0,0,0,1.91.816,2.62,2.62,0,0,0,1.942-.816,2.658,2.658,0,0,0,.8-1.925Z" transform="translate(-195.569 -310.368)" fill="#fff"/><path d="M384.868,327.628V303.154h5.449v24.474Z" transform="translate(-224.384 -303.154)" fill="#fff"/><path d="M410.121,305.863v-2.709h5.449v2.709Zm0,21.766V308.6h5.449v19.025Z" transform="translate(-238.77 -303.154)" fill="#fff"/><path d="M435.374,315.818H451.69v2.708l-10.867,13.608H451.69v2.709H435.374v-2.709l10.9-13.608h-10.9Z" transform="translate(-253.156 -310.368)" fill="#fff"/><path d="M502.269,326.684H491.4v2.709a2.658,2.658,0,0,0,.8,1.925,2.583,2.583,0,0,0,1.91.816h2.741a2.408,2.408,0,0,0,2.709-2.741h2.709q-.622,5.449-5.418,5.45H491.4a5.488,5.488,0,0,1-5.45-5.45v-8.158a5.179,5.179,0,0,1,1.615-3.818,5.267,5.267,0,0,1,3.835-1.6h5.449a5.462,5.462,0,0,1,5.418,5.417ZM491.4,323.976h5.449v-2.741a2.607,2.607,0,0,0-.8-1.91,2.643,2.643,0,0,0-1.942-.8,2.728,2.728,0,0,0-2.708,2.709Z" transform="translate(-281.97 -310.368)" fill="#fff"/><path d="M552.849,327.628h-5.417V324.92q-.325,2.708-2.741,2.709h-2.709a5.488,5.488,0,0,1-5.449-5.45v-8.158a5.179,5.179,0,0,1,1.615-3.818,5.266,5.266,0,0,1,3.835-1.6h5.45v-5.45h5.417Zm-5.417-16.316h-2.741a2.728,2.728,0,0,0-2.709,2.709v8.158a2.659,2.659,0,0,0,.8,1.925,2.583,2.583,0,0,0,1.91.816,2.62,2.62,0,0,0,1.942-.816,2.658,2.658,0,0,0,.8-1.925Z" transform="translate(-310.784 -303.154)" fill="#fff"/><path d="M606.071,327.628V308.6a5.484,5.484,0,0,1,5.449-5.45h5.45a5.186,5.186,0,0,1,3.818,1.615,5.267,5.267,0,0,1,1.6,3.835v19.025H616.97V316.762h-5.45v10.867Zm5.449-13.608h5.45V308.6a2.728,2.728,0,0,0-2.741-2.741,2.607,2.607,0,0,0-1.91.8,2.643,2.643,0,0,0-.8,1.942Z" transform="translate(-350.399 -303.154)" fill="#fff"/><path d="M672.967,327.628h-5.418V324.92q-.325,2.708-2.74,2.709H662.1a5.488,5.488,0,0,1-5.449-5.45v-8.158a5.179,5.179,0,0,1,1.615-3.818,5.266,5.266,0,0,1,3.835-1.6h5.449v-5.45h5.418Zm-5.418-16.316h-2.74a2.728,2.728,0,0,0-2.709,2.709v8.158a2.658,2.658,0,0,0,.8,1.925,2.584,2.584,0,0,0,1.91.816,2.619,2.619,0,0,0,1.942-.816,2.658,2.658,0,0,0,.8-1.925Z" transform="translate(-379.213 -303.154)" fill="#fff"/><path d="M720.838,321.235h-2.709q-.36-2.708-2.577-2.709a3.421,3.421,0,0,0-2.155.571,2.021,2.021,0,0,0-.718,1.681q0,1.172,3.949,3.295,3.228,1.731,3.72,2.872a6.156,6.156,0,0,1,.489,2.447,5.463,5.463,0,0,1-5.45,5.45H712.68q-5.45,0-5.45-5.45h2.741q.325,2.741,2.545,2.741a3.478,3.478,0,0,0,2.186-.571,2.057,2.057,0,0,0,.718-1.712q0-1.144-3.947-3.264-3.232-1.73-3.737-2.872a5.957,5.957,0,0,1-.506-2.447,5.216,5.216,0,0,1,1.615-3.85,5.268,5.268,0,0,1,3.835-1.6h2.708Q720.509,315.818,720.838,321.235Z" transform="translate(-408.027 -310.368)" fill="#fff"/></g></g></g></svg>