<svg xmlns="http://www.w3.org/2000/svg" xmlns:xlink="http://www.w3.org/1999/xlink" width="137.11" height="156" viewBox="0 0 137.11 156"><defs><linearGradient id="a" x1="0.5" y1="-0.723" x2="1" y2="1" gradientUnits="objectBoundingBox"><stop offset="0" stop-color="#ea57f8"/><stop offset="1" stop-color="#3f30e5"/></linearGradient></defs><g transform="translate(-735 -5001)"><g transform="translate(735 5001)"><path d="M220.141,95.57a4.57,4.57,0,1,0-9.141,0v4.57h9.141Z" transform="translate(-156.156 -63.273)" fill="url(#a)"/><path d="M340.141,100.141A9.153,9.153,0,0,0,331,91v18.281A9.153,9.153,0,0,0,340.141,100.141Z" transform="translate(-239.594 -63.273)" fill="url(#a)"/><path d="M91,73.43h50.274V87.141h18.281V73.43h50.274V0H91Zm63.984-54.844h9.141a18.281,18.281,0,1,1,0,36.563h-9.141ZM118.422,32.3a13.711,13.711,0,0,1,27.422,0V55.149H136.7V46.008h-9.141v9.141h-9.141Z" transform="translate(-72.719)" fill="url(#a)"/><path d="M31,331H58.422v46.008H31Z" transform="translate(-31 -230.148)" fill="url(#a)"/><path d="M151,285.2v54.412a91.242,91.242,0,0,0,34.152,6.858h22.977a6.855,6.855,0,1,0,0-13.711h-6.855v-9.141h6.855a7.122,7.122,0,0,0,6.855-7.16,6.856,6.856,0,0,0-6.855-6.855h-6.855v-9.141h6.855a6.855,6.855,0,1,0,0-13.711H173.852V273.93A48.223,48.223,0,0,0,151,285.2Z" transform="translate(-114.437 -190.467)" fill="url(#a)"/></g></g></svg>