<svg xmlns="http://www.w3.org/2000/svg" xmlns:xlink="http://www.w3.org/1999/xlink" width="131.613" height="155" viewBox="0 0 131.613 155"><defs><linearGradient id="a" x1="0.5" x2="0.5" y2="1" gradientUnits="objectBoundingBox"><stop offset="0" stop-color="#ea57f8"/><stop offset="1" stop-color="#3c30e5"/></linearGradient></defs><g transform="translate(-369.904 -308.548)"><g transform="translate(369.904 308.548)"><g transform="translate(19.141 19.723)"><path d="M420.843,336.933a22.486,22.486,0,0,1-3.267,11.724,22.851,22.851,0,0,1-5,5.846l-7.844-5.962,1.23,9.727a22.392,22.392,0,0,1-7.571,1.423h-.308a22.758,22.758,0,1,1,22.758-22.758Z" transform="translate(-375.365 -314.175)" fill="#ff6652"/></g><path d="M416.84,308.856c-1.307-.154-2.653-.27-4-.308a1.98,1.98,0,0,0-1.959,1.886,1.879,1.879,0,0,0,1.882,1.959c1.23.039,2.422.116,3.652.27h.193a1.909,1.909,0,0,0,.231-3.806Zm-17.3,3.459a1.984,1.984,0,0,0-2.5-1.153,39.344,39.344,0,0,0-3.691,1.577,1.918,1.918,0,0,0-.883,2.573,1.857,1.857,0,0,0,1.728,1.08,1.565,1.565,0,0,0,.81-.193c1.115-.54,2.229-1,3.382-1.423A1.926,1.926,0,0,0,399.539,312.316Zm35.983,3.5a31.087,31.087,0,0,0-3.421-2.075,1.9,1.9,0,0,0-2.615.729,1.936,1.936,0,0,0,.771,2.615A32.825,32.825,0,0,1,433.369,319a1.924,1.924,0,1,0,2.152-3.19ZM383.2,322.2a1.887,1.887,0,0,0-2.688.077c-.925,1-1.77,2.037-2.615,3.113a1.948,1.948,0,0,0,.382,2.692,1.9,1.9,0,0,0,1.157.386,1.94,1.94,0,0,0,1.535-.771c.733-.96,1.539-1.882,2.345-2.8A1.857,1.857,0,0,0,383.2,322.2Zm65.779,8.342a33.63,33.63,0,0,0-2.075-3.421,1.929,1.929,0,0,0-2.692-.5,1.878,1.878,0,0,0-.5,2.653c.694,1,1.307,2.036,1.924,3.116a1.882,1.882,0,0,0,1.689,1,2.054,2.054,0,0,0,.925-.231A1.9,1.9,0,0,0,448.977,330.539Zm-75.811,7.841a1.923,1.923,0,0,0-2.345,1.346c-.347,1.307-.655,2.615-.887,3.922a1.919,1.919,0,0,0,1.539,2.229,1.068,1.068,0,0,0,.347.039A1.9,1.9,0,0,0,373.7,344.3c.231-1.192.5-2.383.81-3.54A1.9,1.9,0,0,0,373.167,338.379Zm81.079,11.381c-.039-1.346-.154-2.692-.308-4a1.917,1.917,0,1,0-3.806.463c.116,1.192.231,2.422.27,3.652a1.546,1.546,0,0,0,.116.578,1.516,1.516,0,0,0-.116.575c0,1.23-.039,2.46-.154,3.652a1.937,1.937,0,0,0,1.732,2.114h.189a1.982,1.982,0,0,0,1.924-1.767c.116-1.307.154-2.653.154-4a2.937,2.937,0,0,0-.077-.613A3.808,3.808,0,0,0,454.246,349.76Zm-79.389,12.65a28.664,28.664,0,0,1-.922-3.537,1.909,1.909,0,0,0-2.268-1.5,1.951,1.951,0,0,0-1.5,2.268c.27,1.346.617,2.615,1,3.922a1.944,1.944,0,0,0,1.847,1.346,2.894,2.894,0,0,0,.575-.077A1.943,1.943,0,0,0,374.856,362.41Zm73.89,5.419a1.933,1.933,0,0,0-2.576.845c-.575,1.08-1.153,2.117-1.844,3.155a2.019,2.019,0,0,0,.614,2.653,1.676,1.676,0,0,0,1.041.305,1.821,1.821,0,0,0,.883-.228,1.992,1.992,0,0,0,.729-.655,39.044,39.044,0,0,0,2-3.5A1.9,1.9,0,0,0,448.746,367.829Zm-64.622,10.189q-1.272-1.33-2.422-2.769a1.987,1.987,0,0,0-2.73-.27,1.9,1.9,0,0,0-.27,2.692c.845,1.076,1.731,2.075,2.653,3.039a1.96,1.96,0,0,0,1.385.575,1.941,1.941,0,0,0,1.384-3.267Zm15.338,9.649c-1.153-.386-2.306-.848-3.421-1.346a1.928,1.928,0,0,0-1.539,3.537,39.445,39.445,0,0,0,3.729,1.462,1.688,1.688,0,0,0,.613.077,1.859,1.859,0,0,0,1.809-1.307A1.9,1.9,0,0,0,399.462,387.667Zm18.068,1.574a33.919,33.919,0,0,1-3.459.385h-.193a1.9,1.9,0,0,0-1.805,2,1.929,1.929,0,0,0,1.921,1.805h.116a1.877,1.877,0,0,0,.463-.039c1.192-.077,2.383-.193,3.536-.347a1.925,1.925,0,0,0-.578-3.807Z" transform="translate(-369.904 -308.548)" fill="#ff6652"/><g transform="translate(32.411 33.024)"><path d="M398.071,327.43a9.46,9.46,0,1,1-9.46-9.46A9.46,9.46,0,0,1,398.071,327.43Z" transform="translate(-379.151 -317.97)" fill="#fff"/></g></g><g transform="translate(410.197 352.652)"><path d="M399.8,432.027a5.822,5.822,0,0,1-1.763-.277A5.747,5.747,0,0,1,394,426.924l-12.552-99.238a5.821,5.821,0,0,1,9.292-5.373l79.677,60.494a5.822,5.822,0,0,1-2.317,10.333L432.62,400.6a7.929,7.929,0,0,0-4.311,2.492L404.1,430.085A5.743,5.743,0,0,1,399.8,432.027Zm1.83-6.067v0Zm-11.994-94.832L401.113,421.9l21.472-23.943a15.574,15.574,0,0,1,8.454-4.879l31.468-6.624Zm-.557-4.416v0Z" transform="translate(-381.4 -321.131)" fill="url(#a)"/></g></g></svg>